<?xml version="1.0" standalone="no"?>
<!DOCTYPE svg PUBLIC "-//W3C//DTD SVG 20010904//EN"
 "http://www.w3.org/TR/2001/REC-SVG-20010904/DTD/svg10.dtd">
<svg version="1.0" xmlns="http://www.w3.org/2000/svg"
 width="1819.000000pt" height="668.000000pt" viewBox="0 0 1819.000000 668.000000"
 preserveAspectRatio="xMidYMid meet">

<g transform="translate(0.000000,668.000000) scale(0.100000,-0.100000)"
fill="#000000" stroke="none">
<path d="M16735 6455 c-238 -52 -459 -198 -752 -496 -243 -248 -462 -527 -740
-944 -437 -656 -780 -1207 -1108 -1780 -252 -440 -254 -444 -190 -471 48 -20
78 -18 102 9 12 12 63 99 113 192 214 394 275 483 429 627 83 78 191 148 228
148 50 0 31 -54 -130 -373 -84 -167 -163 -336 -176 -376 -102 -322 149 -409
513 -176 83 53 212 158 199 162 -7 3 -47 -21 -91 -51 -176 -123 -317 -165
-392 -114 -98 66 -91 179 24 436 60 133 141 280 247 447 63 97 89 148 87 165
-3 23 -7 25 -55 25 -42 -1 -69 -9 -130 -41 -102 -53 -227 -136 -344 -228 -52
-40 -96 -72 -98 -71 -8 8 280 553 454 860 387 682 704 1134 1010 1441 256 257
447 376 682 423 242 50 457 7 578 -114 53 -52 79 -101 95 -179 15 -74 28 -63
41 35 18 147 -20 281 -100 351 -104 92 -319 132 -496 93z"/>
<path d="M12283 5027 c-12 -17 -27 -45 -33 -62 -9 -25 -8 -31 6 -42 22 -16 38
-16 259 2 197 16 331 19 338 8 10 -16 -254 -536 -433 -853 -355 -629 -613
-1043 -817 -1308 -34 -45 -63 -87 -63 -92 0 -16 20 -11 53 14 77 58 117 71
213 71 l91 0 12 40 c19 61 513 943 559 998 8 9 19 17 23 17 5 0 50 -55 101
-122 287 -381 754 -927 954 -1117 361 -343 723 -536 1104 -591 166 -24 436
-11 616 31 232 53 467 160 431 196 -5 4 -23 -1 -40 -11 -133 -79 -240 -120
-417 -157 -124 -26 -392 -32 -498 -11 -309 62 -516 202 -986 662 -271 267
-411 421 -647 716 -287 358 -365 463 -354 480 12 17 255 185 471 325 372 240
878 540 1129 669 83 42 151 81 153 85 3 8 -111 54 -135 55 -6 0 -258 -163
-560 -363 -301 -200 -638 -420 -748 -489 -291 -182 -533 -328 -545 -328 -5 0
-10 7 -10 15 0 28 611 1035 649 1069 18 16 41 20 131 24 102 4 110 6 110 25 0
19 -4 20 -92 13 -51 -3 -208 -9 -348 -13 -346 -8 -596 15 -623 58 -17 27 -29
24 -54 -14z"/>
<path d="M596 4998 c-11 -43 -6 -69 20 -95 26 -25 27 -26 129 -19 57 4 177 18
267 31 177 27 317 32 336 13 16 -16 -105 -249 -427 -823 -461 -820 -702 -1225
-766 -1285 -14 -13 -25 -29 -25 -36 0 -26 21 -24 65 6 73 50 166 90 211 90 27
0 76 -15 140 -43 180 -79 302 -100 594 -100 542 -1 963 165 1286 505 448 472
607 1119 356 1451 -49 66 -157 149 -248 192 -195 93 -414 120 -889 111 -181
-3 -379 -10 -438 -16 -59 -6 -183 -11 -275 -12 -160 -2 -170 -1 -238 25 -86
33 -90 33 -98 5z m1492 -68 c180 -36 301 -96 402 -199 111 -113 150 -223 150
-429 1 -676 -460 -1289 -1108 -1478 -147 -42 -271 -57 -432 -51 -161 6 -260
27 -369 79 -75 36 -171 124 -171 156 0 63 467 927 815 1507 213 356 259 423
297 434 51 16 301 5 416 -19z"/>
<path d="M3750 4602 c-49 -27 -95 -104 -95 -159 0 -48 13 -63 58 -63 61 0 136
67 158 141 11 34 10 46 -2 68 -19 34 -70 39 -119 13z"/>
<path d="M11427 4226 c-12 -13 -62 -94 -112 -180 l-90 -156 -65 0 c-176 0
-356 -100 -533 -293 -95 -104 -211 -258 -274 -362 -67 -111 -149 -189 -330
-318 -255 -180 -443 -198 -443 -44 0 127 152 437 406 830 46 72 84 137 84 146
0 27 -30 61 -53 61 -57 0 -324 -198 -664 -495 -24 -20 -43 -32 -43 -26 0 16
57 127 134 260 36 63 66 127 66 141 0 37 -40 72 -76 68 -33 -3 -29 4 -172
-304 -101 -218 -140 -276 -300 -456 -258 -291 -546 -470 -671 -419 -38 16 -51
49 -51 129 1 163 81 342 274 611 76 105 128 187 132 207 14 76 -43 195 -80
165 -19 -16 -100 -154 -245 -414 -167 -304 -263 -433 -373 -506 -121 -81 -175
-32 -129 117 30 101 185 402 301 587 55 88 100 169 100 180 0 12 -17 38 -39
59 -65 63 -70 59 -193 -159 -150 -266 -146 -261 -280 -401 -258 -268 -533
-443 -696 -444 -148 0 -223 97 -208 274 24 290 175 562 361 651 81 38 174 41
223 7 48 -35 65 -75 60 -144 -2 -32 0 -58 5 -58 5 0 34 24 65 54 55 53 56 55
60 118 3 46 0 74 -11 95 -38 72 -172 89 -287 36 -205 -94 -418 -296 -543 -514
-75 -132 -212 -269 -413 -411 -256 -181 -444 -200 -444 -45 0 126 158 449 399
818 45 68 84 134 87 147 8 30 -20 72 -49 72 -59 0 -319 -194 -669 -500 -27
-23 -48 -39 -48 -36 0 11 99 199 155 296 30 52 55 106 55 120 0 37 -40 72 -76
68 -33 -3 -26 9 -158 -276 l-88 -191 -128 -138 c-204 -222 -408 -390 -567
-470 -74 -37 -104 -46 -160 -50 -83 -6 -109 5 -130 54 -45 108 92 445 395 978
39 69 40 70 85 73 26 2 69 -1 97 -6 28 -5 53 -6 55 -2 10 17 -25 30 -99 37
l-78 8 46 69 c25 38 45 70 43 72 -4 5 -127 -33 -153 -47 -12 -6 -32 -28 -45
-49 -22 -36 -29 -39 -79 -45 -166 -19 -267 -57 -426 -162 -169 -111 -327 -270
-452 -454 -66 -96 -163 -184 -312 -284 -134 -89 -216 -125 -299 -132 -109 -9
-151 23 -151 114 0 124 113 383 311 713 113 187 112 207 -7 151 -65 -31 -99
-67 -171 -181 -136 -216 -276 -478 -314 -587 -25 -74 -25 -156 1 -197 44 -72
157 -100 292 -72 161 34 314 118 489 268 31 26 59 48 63 48 3 0 -4 -24 -15
-52 -50 -123 -62 -224 -34 -265 19 -28 81 -45 126 -37 124 24 342 192 522 403
108 128 116 136 89 91 -121 -203 -171 -401 -125 -497 48 -101 207 -106 400
-14 159 76 285 175 517 401 157 153 158 154 131 100 -15 -30 -61 -97 -103
-149 -98 -123 -126 -173 -119 -215 8 -51 35 -106 51 -106 15 0 96 125 232 360
69 120 91 148 193 250 179 177 427 380 465 380 44 0 8 -83 -174 -405 -187
-331 -240 -449 -240 -537 0 -77 67 -107 214 -95 182 16 431 158 658 375 l67
64 -15 -53 c-20 -77 -18 -185 5 -235 21 -47 68 -85 126 -105 64 -21 208 -16
295 10 177 53 394 197 603 400 64 62 117 111 117 107 0 -3 -17 -41 -39 -84
-112 -223 -123 -374 -31 -412 44 -18 136 -8 194 20 59 30 131 93 199 175 35
41 48 52 43 35 -32 -108 -39 -144 -39 -205 0 -113 42 -166 142 -181 160 -24
390 105 650 364 87 87 125 121 97 86 -99 -123 -111 -145 -110 -199 0 -58 28
-118 51 -113 16 3 94 125 228 356 71 122 92 149 196 253 176 175 425 379 461
379 46 0 6 -93 -174 -409 -180 -316 -238 -446 -238 -533 0 -77 67 -107 214
-95 169 15 373 125 619 336 16 13 16 9 -3 -34 -32 -75 -50 -167 -40 -212 5
-21 21 -48 36 -62 23 -19 36 -22 75 -19 117 12 269 155 543 511 58 76 106 136
106 133 0 -3 -107 -202 -239 -443 -131 -241 -363 -669 -515 -951 -278 -514
-356 -653 -449 -792 -190 -284 -433 -543 -652 -696 -280 -194 -610 -283 -952
-254 -451 37 -742 213 -827 500 -27 89 -31 203 -11 298 16 80 15 107 -4 86
-22 -25 -34 -92 -38 -224 -4 -120 -1 -162 16 -245 80 -391 382 -566 906 -525
302 23 527 92 795 243 275 154 557 432 816 803 103 147 736 1181 974 1589 187
322 603 1072 695 1255 39 78 44 127 19 189 -20 50 -39 58 -67 27z m-6627 -385
c0 -25 -221 -401 -318 -541 -117 -169 -394 -424 -502 -461 -38 -14 -60 2 -60
42 0 48 48 182 105 293 157 307 409 574 607 643 73 25 168 39 168 24z m6384
-20 c8 -12 -75 -161 -168 -304 -154 -237 -341 -473 -476 -601 -115 -107 -150
-113 -150 -23 1 201 197 585 404 792 95 95 138 122 215 135 65 11 169 12 175
1z"/>
<path d="M17390 3870 c-101 -21 -136 -52 -47 -43 44 4 55 2 71 -16 15 -17 18
-31 14 -79 -10 -107 -93 -224 -198 -277 -79 -40 -240 -56 -240 -24 0 43 139
244 222 321 34 32 59 60 55 64 -13 13 -121 -63 -215 -151 -143 -135 -250 -288
-317 -456 -14 -36 -39 -79 -56 -94 -16 -16 -29 -35 -29 -42 0 -16 27 -17 32
-1 3 7 4 -37 4 -97 -1 -99 1 -114 23 -148 32 -52 89 -79 179 -85 237 -15 514
108 807 361 135 117 270 266 255 281 -8 8 -27 -7 -67 -54 -167 -193 -370 -353
-556 -440 -100 -46 -171 -64 -257 -64 -95 0 -153 37 -179 113 -27 81 -4 267
49 389 l21 49 82 6 c167 12 306 69 412 169 112 104 159 242 102 297 -28 26
-99 35 -167 21z"/>
<path d="M15747 3758 c-83 -142 -200 -354 -246 -447 -24 -46 -63 -105 -88
-132 -45 -48 -54 -81 -12 -43 l21 19 -17 -40 c-53 -121 -69 -233 -43 -290 38
-85 203 -69 325 31 24 20 71 67 103 105 33 38 60 66 60 62 0 -5 -9 -37 -21
-73 -26 -84 -28 -194 -3 -245 60 -127 264 -107 500 50 85 57 184 141 184 156
0 19 -23 7 -81 -41 -141 -118 -273 -190 -361 -198 -109 -9 -134 25 -126 171
10 170 78 309 299 613 116 159 124 183 95 267 -20 54 -44 79 -66 67 -18 -10
-117 -175 -265 -445 -180 -328 -343 -515 -449 -515 -38 0 -60 40 -52 96 16
116 183 449 367 732 27 41 49 84 49 96 0 28 -69 96 -97 96 -17 0 -34 -21 -76
-92z"/>
<path d="M17495 1774 c-16 -3 -39 -9 -50 -14 -11 -4 -35 -14 -52 -22 -18 -7
-33 -16 -33 -20 0 -5 -5 -8 -11 -8 -7 0 -24 -13 -38 -29 -78 -88 -131 -208
-131 -300 0 -53 0 -53 -27 -47 -63 13 -230 19 -237 7 -4 -6 -16 -11 -27 -11
-10 0 -19 -4 -19 -10 0 -5 -6 -10 -14 -10 -14 0 -75 -57 -109 -101 -33 -43
-56 -105 -68 -180 -15 -101 -6 -178 32 -252 30 -59 107 -147 129 -147 5 0 10
-3 10 -8 0 -16 152 -63 265 -82 137 -22 181 -34 235 -61 30 -15 76 -37 103
-48 32 -14 47 -26 47 -38 0 -28 20 -43 55 -43 25 0 41 10 76 49 24 27 51 59
59 71 8 12 20 28 25 34 6 6 24 31 40 56 17 25 35 51 42 58 6 6 15 21 18 32 3
11 10 20 15 20 4 0 10 8 13 18 4 9 22 62 42 117 99 274 111 406 61 649 -8 35
-26 87 -42 115 -29 55 -105 141 -123 141 -6 0 -11 5 -11 10 0 6 -7 10 -15 10
-8 0 -15 5 -15 10 0 6 -8 10 -18 10 -10 0 -23 5 -29 11 -11 11 -148 20 -198
13z m196 -206 c25 -14 44 -35 58 -67 46 -99 65 -335 37 -443 -14 -54 -27 -89
-66 -188 -12 -30 -26 -68 -32 -85 -6 -16 -14 -32 -18 -35 -10 -8 -70 -103 -70
-111 0 -19 -32 -16 -54 6 -14 14 -32 25 -41 25 -8 0 -15 5 -15 10 0 6 -7 10
-15 10 -8 0 -15 5 -15 10 0 6 -9 10 -20 10 -11 0 -20 5 -20 10 0 6 -10 10 -23
10 -13 0 -27 4 -33 8 -15 14 -81 29 -214 50 -145 23 -184 36 -226 77 -44 43
-53 64 -60 142 -7 77 8 121 52 156 13 10 31 25 39 34 25 24 188 -6 276 -51
102 -53 105 -52 113 47 17 207 23 244 40 277 24 45 72 92 115 112 44 21 142
13 192 -14z"/>
</g>
</svg>
